<svg xmlns="http://www.w3.org/2000/svg" xmlns:xlink="http://www.w3.org/1999/xlink" viewBox="0 0 426.62 88.24"><defs><style>.cls-1{fill:none;}.cls-2{clip-path:url(#clip-path);}.cls-3,.cls-6{fill:#fff;}.cls-3,.cls-4{fill-rule:evenodd;}.cls-4{fill:#f6851f;}.cls-5{clip-path:url(#clip-path-2);}</style><clipPath id="clip-path" transform="translate(-125.22 -83.44)"><rect class="cls-1" x="125.22" y="83.44" width="96.69" height="88.24"/></clipPath><clipPath id="clip-path-2" transform="translate(-125.22 -83.44)"><rect class="cls-1" x="236" y="83.44" width="315.83" height="88.24"/></clipPath></defs><title>LIGHT_ACCENT</title><g id="Layer_1" data-name="Layer 1"><g class="cls-2"><path class="cls-3" d="M141.69,133l32.07,30.84,31.9-30.66L209.89,115l7.52-6.85-6.52,28-37,35.6-37.25-35.8-6.76-28.66,7.41,6.94L141.69,133Zm5.43-1.43-2.47-10.46,28.85,27,29.17-26.6-2.44,10.17-26.48,25.44-26.63-25.58Zm55.92-35-29.51,25.16-.07-.06-.06,0L133,86.89h9.08l31.35,27,31.66-27h9.17l-11.31,9.63Z" transform="translate(-125.22 -83.44)"/><path class="cls-4" d="M221.91,83.73,173.6,127.2v15.55l44.24-40.7,4.07-18.32Zm-96.69-.29L173.6,127.2v15.55L129.29,101l-4.07-17.59Z" transform="translate(-125.22 -83.44)"/></g><g class="cls-5"><path class="cls-6" d="M311.15,108.29h3.53c4.27,0,5.33-1.05,5.33-5.33V96.58c0-4.28-1.06-5.33-5.33-5.33h-3.53v17Zm16.66,14.52c0,9.45.23,13.07,1.29,14.72l-7.78.31c-1.06-1.73-1.31-6.33-1.31-15v-2.73c0-3.76-.83-4.36-3.91-4.43h-5v22.66l-7.81.42V83.89h13.14c8.18,0,11.33,3.23,11.33,11.34v9.08a8.7,8.7,0,0,1-1.58,5.61,12.18,12.18,0,0,1-1.65,1.7l-.22.2c1.5,1.5,3.45,2.77,3.45,7.5v3.49ZM544,83.74V127.3L540.67,116l-1.84-6.21-7.71-26h-7.81v59.13l7.81.81V108.42l.43,1.35,1.77,5.57L542.75,145l9.08,1.11V83.74Zm-37.5,26.18-.43,3.53-1.32,10.77-1.41-11-.43-3.35-3.35-26h-7.81l-3.45,26-.32,2.44L486.59,123l-1.36-10.81-.29-2.29-3.29-26h-7.81l4.09,26,.31,1.94,4.37,27.8,7.74.54,3.55-27.51.36-2.77,1.42-11,1.38,11,.38,3L501,141l7.78.66L513,113.92l.61-4,4-26h-7.81l-3.19,26Zm-44.38,1.21V98c0-4-1.21-7.21-5.56-7.21S451,94,451,98v25.55c0,4,1.21,7.21,5.56,7.21s5.56-3.23,5.56-7.21V111.13Zm-5.56-27.69C465.82,83.44,470,90.2,470,98v25.55c0,7.81-4.13,14.56-13.36,14.56s-13.36-6.75-13.36-14.56V98c0-7.81,4.13-14.57,13.36-14.57m-26.86,26.77V96.58c0-4.28-1.05-5.33-5.33-5.33h-4.35v38.06l4.35.32c4.28,0,5.33-1.37,5.33-5.65V110.21ZM426.2,83.89c8.18,0,11.34,3.23,11.34,11.34v30.42c0,8.11-3.17,11.32-11.34,11.33l-14-.31V83.89h14m-29.59,26h0l-1.51,11.42-1.58-11.41v0l-3.6-26h-7.81l-3.59,26,0,.13-1.57,11.38-1.49-11.33,0-.18-3.43-26h-7.81l4.35,26,.05.28L373,136.44h7.81l3.7-26.45v-.07l1.54-11,1.55,11v0l3.71,26.47h7.81l4.43-26.51h0l4.35-26h-7.81l-3.44,26Zm-43.72.67V98c0-4-1.21-7.2-5.56-7.2S341.77,94,341.77,98v24.33c0,4,1.21,7.2,5.56,7.2s5.56-3.22,5.56-7.2V110.59Zm-5.56-27.15c9.23,0,13.36,6.76,13.36,14.56v24.33c0,7.81-4.13,14.56-13.36,14.56S334,130.14,334,122.33V98c0-7.8,4.13-14.56,13.36-14.56m-59.3,23H276.92V83.89h-7.81v57.18l7.81-.61V113.8H288v25.87l7.81-.5V83.89H288v22.55ZM236,91.25h9.46v51.84l7.81-.76V91.25h9.45V83.89H236v7.36Zm214.67,72.6-4.1-.21c0,4.11,2.17,7.75,7,8s7-2.93,7-7c0-4.54-3.27-6.45-7.92-10.49-1.69-1.43-2-2.51-2-3.26,0-2.09.63-3.56,2.92-3.43s2.92,1.86,2.92,4l4.09.25c0-4.1-2.16-7.79-7-8.07s-7,3-7,7.09c0,1.1.32,3.4,3.2,5.8,4.45,3.74,6.74,4.91,6.74,7.91,0,2.09-.63,3.55-2.92,3.42s-2.92-1.86-2.92-4m-9.42-20.93q-7-.3-14-.52v3.86l5,.16v23.75l4.11.15V146.58l5,.21v-3.87Zm-26,3.14c2.24,0,2.8.61,2.8,2.86v3.35c0,2.25-.56,2.79-2.8,2.74l-1.86,0V146l1.86,0m6.9,2.24c0-4.25-1.66-6-6-6.08q-3.45-.08-6.9-.12v27.61l4.1.06V158.84l2.6,0c1.62.07,2.06.4,2.06,2.37v.91c0,4.57.12,6.78.67,7.7l4.1.1c-.56-.88-.67-2.74-.67-7.71V161a4.61,4.61,0,0,0-1.82-4,4.27,4.27,0,0,0,1.82-3.9V148.3m-27.81,1.44c0-2.09.63-3.79,2.92-3.79s2.92,1.7,2.92,3.79v12.78c0,2.09-.63,3.78-2.92,3.78s-2.92-1.69-2.92-3.78V149.74Zm9.94,0c0-4.09-2.17-7.67-7-7.67s-7,3.59-7,7.68v12.78c0,4.11,2.18,7.63,7,7.62s7-3.53,7-7.63V149.75M378.14,146c2.25,0,2.8.5,2.8,2.75v3.75c0,2.24-.55,2.81-2.8,2.85l-1.85,0V146l1.85,0m6.91,2c0-4.26-1.66-5.94-6-5.86-2.3,0-4.61.1-6.91.16v27.6l4.11-.1V159.24l2.8-.05c4.3-.08,6-1.8,6-6.06q0-2.58,0-5.16m-28.82,14.94-4.1.18c0,4.1,2.17,7.54,7,7.35s7-3.6,7-7.7c0-4.54-3.28-6.13-7.93-9.74-1.69-1.27-2-2.32-2-3.07,0-2.09.63-3.61,2.92-3.7s2.92,1.58,2.92,3.67l4.1-.14c0-4.1-2.17-7.59-7-7.4s-7,3.65-7,7.75c0,1.11.32,3.38,3.2,5.5,4.45,3.32,6.74,4.27,6.74,7.27,0,2.09-.63,3.61-2.92,3.7s-2.92-1.58-2.92-3.67m-16.9-15.66v6.94l6.1-.34v3.87c-2,.1-4.07.22-6.1.34v9.07c2.43-.15,4.86-.28,7.29-.41v3.87q-5.7.3-11.39.65v-27.6q5.68-.36,11.39-.65v3.86c-2.43.12-4.86.26-7.29.4" transform="translate(-125.22 -83.44)"/></g></g></svg>